<svg xmlns="http://www.w3.org/2000/svg" width="100" height="100" fill="none"><path fill="#012F34" fill-rule="evenodd" d="M0 100c-55.228 0-100-44.772-100-100S-55.228-100 0-100 100-55.228 100 0 55.228 100 0 100Zm0-67c-18.225 0-33-14.775-33-33s14.775-33 33-33S33-18.225 33 0 18.225 33 0 33Z" clip-rule="evenodd"/><path fill="#F67E7E" fill-rule="evenodd" d="M100 0h-4v4h4V0ZM89 0h4v4h-4V0Zm0 8h4v4h-4V8Zm4 8h-4v4h4v-4Zm-4 8h4v4h-4v-4Zm4 8h-4v4h4v-4Zm-4 8h4v4h-4v-4ZM86 0h-4v4h4V0Zm0 8h-4v4h4V8Zm-4 8h4v4h-4v-4Zm4 8h-4v4h4v-4Zm-4 8h4v4h-4v-4Zm4 8h-4v4h4v-4Zm14-32h-4v4h4V8ZM79 0h-4v4h4V0Zm0 8h-4v4h4V8Zm-4 8h4v4h-4v-4Zm4 8h-4v4h4v-4Zm-4 8h4v4h-4v-4Zm4 8h-4v4h4v-4Zm21-24h-4v4h4v-4ZM72 0h-4v4h4V0Zm0 8h-4v4h4V8Zm-4 8h4v4h-4v-4Zm4 8h-4v4h4v-4Zm-4 8h4v4h-4v-4Zm4 8h-4v4h4v-4Zm28-16h-4v4h4v-4ZM65 0h-4v4h4V0Zm0 8h-4v4h4V8Zm-4 8h4v4h-4v-4Zm4 8h-4v4h4v-4Zm-4 8h4v4h-4v-4Zm4 8h-4v4h4v-4Zm35-8h-4v4h4v-4ZM58 0h-4v4h4V0Zm0 8h-4v4h4V8Zm-4 8h4v4h-4v-4Zm4 8h-4v4h4v-4Zm-4 8h4v4h-4v-4Zm4 8h-4v4h4v-4Zm42 0h-4v4h4v-4ZM51 0h-4v4h4V0Zm0 8h-4v4h4V8Zm-4 8h4v4h-4v-4Zm4 8h-4v4h4v-4Zm-4 8h4v4h-4v-4Zm4 8h-4v4h4v-4Z" clip-rule="evenodd"/></svg>